<mxfile host="app.diagrams.net" modified="2024-06-29T19:08:56.432Z" agent="Mozilla/5.0 (Windows NT 10.0; Win64; x64; rv:127.0) Gecko/20100101 Firefox/127.0" etag="e1aEtiRnVLXDnmpWqETS" version="24.6.4" type="device">
  <diagram name="Page-1" id="2xAWyOZL0zCjW-eJIUMe">
    <mxGraphModel dx="1434" dy="754" grid="1" gridSize="10" guides="1" tooltips="1" connect="1" arrows="1" fold="1" page="1" pageScale="1" pageWidth="1100" pageHeight="850" math="0" shadow="0">
      <root>
        <mxCell id="0" />
        <mxCell id="1" parent="0" />
        <mxCell id="B14xlJ3VBhZn96622r-5-1" value="&lt;font style=&quot;font-size: 16px;&quot;&gt;&lt;b&gt;&amp;nbsp;Shiny session&lt;/b&gt;&lt;/font&gt;" style="rounded=0;whiteSpace=wrap;html=1;dashed=1;dashPattern=12 12;verticalAlign=top;align=left;" vertex="1" parent="1">
          <mxGeometry x="60" y="160" width="790" height="540" as="geometry" />
        </mxCell>
        <mxCell id="B14xlJ3VBhZn96622r-5-2" value="&lt;font style=&quot;font-size: 14px;&quot;&gt;&lt;b&gt;&amp;nbsp;User Interface (UI)&lt;/b&gt;&lt;/font&gt;" style="rounded=0;whiteSpace=wrap;html=1;verticalAlign=top;align=left;" vertex="1" parent="1">
          <mxGeometry x="200" y="180" width="630" height="190" as="geometry" />
        </mxCell>
        <mxCell id="B14xlJ3VBhZn96622r-5-3" value="&lt;font style=&quot;font-size: 14px;&quot;&gt;&lt;b&gt;&amp;nbsp;Server function&lt;/b&gt;&lt;/font&gt;" style="rounded=0;whiteSpace=wrap;html=1;verticalAlign=top;align=left;" vertex="1" parent="1">
          <mxGeometry x="200" y="390" width="630" height="280" as="geometry" />
        </mxCell>
        <mxCell id="B14xlJ3VBhZn96622r-5-4" value="&lt;span style=&quot;font-size: 18px;&quot;&gt;&lt;font style=&quot;font-size: 18px;&quot;&gt;Input&lt;/font&gt;&lt;/span&gt;" style="rounded=1;whiteSpace=wrap;html=1;fontSize=18;fontStyle=1" vertex="1" parent="1">
          <mxGeometry x="230" y="240" width="120" height="60" as="geometry" />
        </mxCell>
        <mxCell id="B14xlJ3VBhZn96622r-5-5" value="&lt;font style=&quot;font-size: 18px;&quot;&gt;Output&lt;/font&gt;" style="rounded=1;whiteSpace=wrap;html=1;fontSize=18;fontStyle=1" vertex="1" parent="1">
          <mxGeometry x="640" y="240" width="120" height="60" as="geometry" />
        </mxCell>
        <mxCell id="B14xlJ3VBhZn96622r-5-9" style="edgeStyle=orthogonalEdgeStyle;rounded=0;orthogonalLoop=1;jettySize=auto;html=1;exitX=0.5;exitY=0;exitDx=0;exitDy=0;entryX=0.5;entryY=1;entryDx=0;entryDy=0;" edge="1" parent="1" source="B14xlJ3VBhZn96622r-5-8" target="B14xlJ3VBhZn96622r-5-5">
          <mxGeometry relative="1" as="geometry" />
        </mxCell>
        <mxCell id="B14xlJ3VBhZn96622r-5-8" value="Render" style="rounded=1;whiteSpace=wrap;html=1;fontSize=18;fontStyle=1" vertex="1" parent="1">
          <mxGeometry x="640" y="470" width="120" height="60" as="geometry" />
        </mxCell>
        <mxCell id="B14xlJ3VBhZn96622r-5-11" style="edgeStyle=orthogonalEdgeStyle;rounded=0;orthogonalLoop=1;jettySize=auto;html=1;exitX=1;exitY=0.5;exitDx=0;exitDy=0;entryX=0.5;entryY=0;entryDx=0;entryDy=0;" edge="1" parent="1" source="B14xlJ3VBhZn96622r-5-10" target="B14xlJ3VBhZn96622r-5-4">
          <mxGeometry relative="1" as="geometry">
            <mxPoint x="1040" y="150" as="targetPoint" />
            <Array as="points">
              <mxPoint x="790" y="600" />
              <mxPoint x="790" y="210" />
              <mxPoint x="290" y="210" />
            </Array>
          </mxGeometry>
        </mxCell>
        <mxCell id="B14xlJ3VBhZn96622r-5-13" style="edgeStyle=orthogonalEdgeStyle;rounded=0;orthogonalLoop=1;jettySize=auto;html=1;exitX=0.5;exitY=1;exitDx=0;exitDy=0;entryX=0.5;entryY=0;entryDx=0;entryDy=0;" edge="1" parent="1" source="B14xlJ3VBhZn96622r-5-10" target="B14xlJ3VBhZn96622r-5-12">
          <mxGeometry relative="1" as="geometry">
            <Array as="points">
              <mxPoint x="700" y="680" />
              <mxPoint x="630" y="680" />
            </Array>
          </mxGeometry>
        </mxCell>
        <mxCell id="B14xlJ3VBhZn96622r-5-10" value="Observer" style="rounded=1;whiteSpace=wrap;html=1;fontSize=18;fontStyle=1" vertex="1" parent="1">
          <mxGeometry x="640" y="570" width="120" height="60" as="geometry" />
        </mxCell>
        <mxCell id="B14xlJ3VBhZn96622r-5-12" value="External database" style="rounded=1;whiteSpace=wrap;html=1;fontSize=18;fontStyle=1" vertex="1" parent="1">
          <mxGeometry x="570" y="720" width="120" height="60" as="geometry" />
        </mxCell>
        <mxCell id="B14xlJ3VBhZn96622r-5-14" value="R console" style="rounded=1;whiteSpace=wrap;html=1;fontSize=18;fontStyle=1" vertex="1" parent="1">
          <mxGeometry x="710" y="720" width="120" height="60" as="geometry" />
        </mxCell>
        <mxCell id="B14xlJ3VBhZn96622r-5-15" style="edgeStyle=orthogonalEdgeStyle;rounded=0;orthogonalLoop=1;jettySize=auto;html=1;exitX=0.5;exitY=1;exitDx=0;exitDy=0;entryX=0.5;entryY=0;entryDx=0;entryDy=0;" edge="1" parent="1" source="B14xlJ3VBhZn96622r-5-10" target="B14xlJ3VBhZn96622r-5-14">
          <mxGeometry relative="1" as="geometry">
            <mxPoint x="710" y="640" as="sourcePoint" />
            <mxPoint x="630" y="760" as="targetPoint" />
            <Array as="points">
              <mxPoint x="700" y="680" />
              <mxPoint x="770" y="680" />
            </Array>
          </mxGeometry>
        </mxCell>
        <mxCell id="B14xlJ3VBhZn96622r-5-30" style="edgeStyle=orthogonalEdgeStyle;rounded=0;orthogonalLoop=1;jettySize=auto;html=1;exitX=1;exitY=0.5;exitDx=0;exitDy=0;entryX=0;entryY=0.5;entryDx=0;entryDy=0;" edge="1" parent="1" source="B14xlJ3VBhZn96622r-5-16" target="B14xlJ3VBhZn96622r-5-8">
          <mxGeometry relative="1" as="geometry" />
        </mxCell>
        <mxCell id="B14xlJ3VBhZn96622r-5-31" style="edgeStyle=orthogonalEdgeStyle;rounded=0;orthogonalLoop=1;jettySize=auto;html=1;exitX=1;exitY=0.5;exitDx=0;exitDy=0;entryX=0;entryY=0.5;entryDx=0;entryDy=0;" edge="1" parent="1" source="B14xlJ3VBhZn96622r-5-16" target="B14xlJ3VBhZn96622r-5-10">
          <mxGeometry relative="1" as="geometry" />
        </mxCell>
        <mxCell id="B14xlJ3VBhZn96622r-5-16" value="Reactive" style="rounded=1;whiteSpace=wrap;html=1;fontSize=18;fontStyle=1" vertex="1" parent="1">
          <mxGeometry x="460" y="517.5" width="120" height="60" as="geometry" />
        </mxCell>
        <mxCell id="B14xlJ3VBhZn96622r-5-18" value="Update" style="text;html=1;align=center;verticalAlign=middle;whiteSpace=wrap;rounded=0;rotation=0;fontSize=14;" vertex="1" parent="1">
          <mxGeometry x="390" y="180" width="60" height="30" as="geometry" />
        </mxCell>
        <mxCell id="B14xlJ3VBhZn96622r-5-24" value="" style="rounded=0;whiteSpace=wrap;html=1;fillStyle=dashed;fillColor=#1ba1e2;strokeColor=#006EAF;fontColor=#ffffff;gradientColor=none;opacity=50;fontStyle=1" vertex="1" parent="1">
          <mxGeometry x="200" y="390" width="320" height="280" as="geometry" />
        </mxCell>
        <mxCell id="B14xlJ3VBhZn96622r-5-29" style="edgeStyle=orthogonalEdgeStyle;rounded=0;orthogonalLoop=1;jettySize=auto;html=1;exitX=1;exitY=0.5;exitDx=0;exitDy=0;entryX=0;entryY=0.5;entryDx=0;entryDy=0;" edge="1" parent="1" source="B14xlJ3VBhZn96622r-5-6" target="B14xlJ3VBhZn96622r-5-16">
          <mxGeometry relative="1" as="geometry" />
        </mxCell>
        <mxCell id="B14xlJ3VBhZn96622r-5-32" style="edgeStyle=orthogonalEdgeStyle;rounded=0;orthogonalLoop=1;jettySize=auto;html=1;exitX=1;exitY=0.5;exitDx=0;exitDy=0;entryX=0;entryY=0.5;entryDx=0;entryDy=0;" edge="1" parent="1" source="B14xlJ3VBhZn96622r-5-6" target="B14xlJ3VBhZn96622r-5-8">
          <mxGeometry relative="1" as="geometry">
            <Array as="points">
              <mxPoint x="430" y="548" />
              <mxPoint x="430" y="500" />
            </Array>
          </mxGeometry>
        </mxCell>
        <mxCell id="B14xlJ3VBhZn96622r-5-33" style="edgeStyle=orthogonalEdgeStyle;rounded=0;orthogonalLoop=1;jettySize=auto;html=1;exitX=1;exitY=0.5;exitDx=0;exitDy=0;entryX=0;entryY=0.5;entryDx=0;entryDy=0;" edge="1" parent="1" source="B14xlJ3VBhZn96622r-5-6" target="B14xlJ3VBhZn96622r-5-10">
          <mxGeometry relative="1" as="geometry">
            <Array as="points">
              <mxPoint x="430" y="548" />
              <mxPoint x="430" y="600" />
            </Array>
          </mxGeometry>
        </mxCell>
        <mxCell id="B14xlJ3VBhZn96622r-5-6" value="&lt;font style=&quot;font-size: 18px;&quot;&gt;&lt;span style=&quot;font-size: 18px;&quot;&gt;Event&lt;/span&gt;&lt;/font&gt;" style="rounded=1;whiteSpace=wrap;html=1;fontSize=18;fontStyle=1" vertex="1" parent="1">
          <mxGeometry x="230" y="518" width="120" height="60" as="geometry" />
        </mxCell>
        <mxCell id="B14xlJ3VBhZn96622r-5-7" style="edgeStyle=orthogonalEdgeStyle;rounded=0;orthogonalLoop=1;jettySize=auto;html=1;exitX=0.5;exitY=1;exitDx=0;exitDy=0;entryX=0.5;entryY=0;entryDx=0;entryDy=0;" edge="1" parent="1" source="B14xlJ3VBhZn96622r-5-35" target="B14xlJ3VBhZn96622r-5-6">
          <mxGeometry relative="1" as="geometry" />
        </mxCell>
        <mxCell id="B14xlJ3VBhZn96622r-5-25" value="Reactive producers" style="text;html=1;align=center;verticalAlign=middle;whiteSpace=wrap;rounded=0;fontSize=14;fontStyle=1" vertex="1" parent="1">
          <mxGeometry x="410" y="610" width="100" height="50" as="geometry" />
        </mxCell>
        <mxCell id="B14xlJ3VBhZn96622r-5-26" value="" style="rounded=0;whiteSpace=wrap;html=1;fillStyle=cross-hatch;fillColor=#fa6800;strokeColor=#C73500;fontColor=#000000;opacity=50;rotation=-180;" vertex="1" parent="1">
          <mxGeometry x="520" y="390" width="310" height="280" as="geometry" />
        </mxCell>
        <mxCell id="B14xlJ3VBhZn96622r-5-27" value="Reactive consumers" style="text;html=1;align=center;verticalAlign=middle;whiteSpace=wrap;rounded=0;fontSize=14;fontStyle=1" vertex="1" parent="1">
          <mxGeometry x="530" y="610" width="100" height="50" as="geometry" />
        </mxCell>
        <mxCell id="B14xlJ3VBhZn96622r-5-36" value="" style="edgeStyle=orthogonalEdgeStyle;rounded=0;orthogonalLoop=1;jettySize=auto;html=1;exitX=0.5;exitY=1;exitDx=0;exitDy=0;entryX=0.5;entryY=0;entryDx=0;entryDy=0;" edge="1" parent="1" source="B14xlJ3VBhZn96622r-5-4" target="B14xlJ3VBhZn96622r-5-35">
          <mxGeometry relative="1" as="geometry">
            <mxPoint x="340" y="300" as="sourcePoint" />
            <mxPoint x="340" y="518" as="targetPoint" />
          </mxGeometry>
        </mxCell>
        <mxCell id="B14xlJ3VBhZn96622r-5-35" value="" style="shape=umlDestroy;whiteSpace=wrap;html=1;strokeWidth=3;targetShapes=umlLifeline;" vertex="1" parent="1">
          <mxGeometry x="275" y="430" width="30" height="30" as="geometry" />
        </mxCell>
        <mxCell id="B14xlJ3VBhZn96622r-5-38" style="edgeStyle=orthogonalEdgeStyle;rounded=0;orthogonalLoop=1;jettySize=auto;html=1;exitX=1;exitY=0.5;exitDx=0;exitDy=0;entryX=0;entryY=0.5;entryDx=0;entryDy=0;" edge="1" parent="1" source="B14xlJ3VBhZn96622r-5-54" target="B14xlJ3VBhZn96622r-5-6">
          <mxGeometry relative="1" as="geometry">
            <mxPoint x="190" y="547.5" as="sourcePoint" />
          </mxGeometry>
        </mxCell>
        <mxCell id="B14xlJ3VBhZn96622r-5-43" value="Event suppressed if" style="swimlane;fontStyle=0;childLayout=stackLayout;horizontal=1;startSize=20;horizontalStack=0;resizeParent=1;resizeParentMax=0;resizeLast=0;collapsible=0;marginBottom=0;whiteSpace=wrap;html=1;" vertex="1" parent="1">
          <mxGeometry x="430" y="402" width="140" height="80" as="geometry">
            <mxRectangle x="430" y="402" width="150" height="30" as="alternateBounds" />
          </mxGeometry>
        </mxCell>
        <mxCell id="B14xlJ3VBhZn96622r-5-44" value="Isolated" style="text;strokeColor=none;fillColor=none;align=left;verticalAlign=middle;spacingLeft=4;spacingRight=4;overflow=hidden;points=[[0,0.5],[1,0.5]];portConstraint=eastwest;rotatable=0;whiteSpace=wrap;html=1;" vertex="1" parent="B14xlJ3VBhZn96622r-5-43">
          <mxGeometry y="20" width="140" height="20" as="geometry" />
        </mxCell>
        <mxCell id="B14xlJ3VBhZn96622r-5-45" value="Input is frozen" style="text;strokeColor=none;fillColor=none;align=left;verticalAlign=middle;spacingLeft=4;spacingRight=4;overflow=hidden;points=[[0,0.5],[1,0.5]];portConstraint=eastwest;rotatable=0;whiteSpace=wrap;html=1;" vertex="1" parent="B14xlJ3VBhZn96622r-5-43">
          <mxGeometry y="40" width="140" height="20" as="geometry" />
        </mxCell>
        <mxCell id="B14xlJ3VBhZn96622r-5-46" value="Bound to another event" style="text;strokeColor=none;fillColor=none;align=left;verticalAlign=middle;spacingLeft=4;spacingRight=4;overflow=hidden;points=[[0,0.5],[1,0.5]];portConstraint=eastwest;rotatable=0;whiteSpace=wrap;html=1;" vertex="1" parent="B14xlJ3VBhZn96622r-5-43">
          <mxGeometry y="60" width="140" height="20" as="geometry" />
        </mxCell>
        <mxCell id="B14xlJ3VBhZn96622r-5-49" value="" style="endArrow=none;html=1;rounded=0;" edge="1" parent="1">
          <mxGeometry width="50" height="50" relative="1" as="geometry">
            <mxPoint x="311" y="445" as="sourcePoint" />
            <mxPoint x="430" y="445" as="targetPoint" />
          </mxGeometry>
        </mxCell>
        <mxCell id="B14xlJ3VBhZn96622r-5-50" value="Dynamic UI elements" style="rounded=1;whiteSpace=wrap;html=1;fontSize=18;fontStyle=1" vertex="1" parent="1">
          <mxGeometry x="440" y="240" width="120" height="60" as="geometry" />
        </mxCell>
        <mxCell id="B14xlJ3VBhZn96622r-5-51" value="" style="endArrow=classic;html=1;rounded=0;entryX=0.5;entryY=0;entryDx=0;entryDy=0;" edge="1" parent="1" target="B14xlJ3VBhZn96622r-5-50">
          <mxGeometry width="50" height="50" relative="1" as="geometry">
            <mxPoint x="500" y="210" as="sourcePoint" />
            <mxPoint x="690" y="460" as="targetPoint" />
          </mxGeometry>
        </mxCell>
        <mxCell id="B14xlJ3VBhZn96622r-5-52" value="Insert" style="text;html=1;align=center;verticalAlign=middle;whiteSpace=wrap;rounded=0;rotation=0;fontSize=14;" vertex="1" parent="1">
          <mxGeometry x="500" y="210" width="60" height="30" as="geometry" />
        </mxCell>
        <mxCell id="B14xlJ3VBhZn96622r-5-53" value="Session events" style="swimlane;fontStyle=0;childLayout=stackLayout;horizontal=1;startSize=20;horizontalStack=0;resizeParent=1;resizeParentMax=0;resizeLast=0;collapsible=0;marginBottom=0;whiteSpace=wrap;html=1;" vertex="1" parent="1">
          <mxGeometry x="75" y="498" width="110" height="80" as="geometry">
            <mxRectangle x="430" y="402" width="150" height="30" as="alternateBounds" />
          </mxGeometry>
        </mxCell>
        <mxCell id="B14xlJ3VBhZn96622r-5-56" value="Flush" style="text;strokeColor=none;fillColor=none;align=left;verticalAlign=middle;spacingLeft=4;spacingRight=4;overflow=hidden;points=[[0,0.5],[1,0.5]];portConstraint=eastwest;rotatable=0;whiteSpace=wrap;html=1;" vertex="1" parent="B14xlJ3VBhZn96622r-5-53">
          <mxGeometry y="20" width="110" height="20" as="geometry" />
        </mxCell>
        <mxCell id="B14xlJ3VBhZn96622r-5-54" value="Session start" style="text;strokeColor=none;fillColor=none;align=left;verticalAlign=middle;spacingLeft=4;spacingRight=4;overflow=hidden;points=[[0,0.5],[1,0.5]];portConstraint=eastwest;rotatable=0;whiteSpace=wrap;html=1;" vertex="1" parent="B14xlJ3VBhZn96622r-5-53">
          <mxGeometry y="40" width="110" height="20" as="geometry" />
        </mxCell>
        <mxCell id="B14xlJ3VBhZn96622r-5-55" value="Session end" style="text;strokeColor=none;fillColor=none;align=left;verticalAlign=middle;spacingLeft=4;spacingRight=4;overflow=hidden;points=[[0,0.5],[1,0.5]];portConstraint=eastwest;rotatable=0;whiteSpace=wrap;html=1;" vertex="1" parent="B14xlJ3VBhZn96622r-5-53">
          <mxGeometry y="60" width="110" height="20" as="geometry" />
        </mxCell>
        <mxCell id="B14xlJ3VBhZn96622r-5-58" style="edgeStyle=orthogonalEdgeStyle;rounded=0;orthogonalLoop=1;jettySize=auto;html=1;exitX=0.5;exitY=0;exitDx=0;exitDy=0;entryX=0.5;entryY=1;entryDx=0;entryDy=0;" edge="1" parent="1" source="B14xlJ3VBhZn96622r-5-57" target="B14xlJ3VBhZn96622r-5-6">
          <mxGeometry relative="1" as="geometry" />
        </mxCell>
        <mxCell id="B14xlJ3VBhZn96622r-5-57" value="Reactive values" style="rounded=1;whiteSpace=wrap;html=1;fontSize=18;fontStyle=1" vertex="1" parent="1">
          <mxGeometry x="230" y="600" width="120" height="60" as="geometry" />
        </mxCell>
        <mxCell id="B14xlJ3VBhZn96622r-5-60" value="Input Validation" style="text;html=1;align=center;verticalAlign=middle;whiteSpace=wrap;rounded=0;rotation=0;fontSize=14;" vertex="1" parent="1">
          <mxGeometry x="360" y="512" width="60" height="30" as="geometry" />
        </mxCell>
        <mxCell id="B14xlJ3VBhZn96622r-5-61" value="" style="endArrow=block;html=1;rounded=0;endFill=1;strokeWidth=3;" edge="1" parent="1">
          <mxGeometry width="50" height="50" relative="1" as="geometry">
            <mxPoint x="422" y="636" as="sourcePoint" />
            <mxPoint x="399" y="636" as="targetPoint" />
          </mxGeometry>
        </mxCell>
        <mxCell id="B14xlJ3VBhZn96622r-5-62" value="" style="endArrow=block;html=1;rounded=0;endFill=1;strokeWidth=3;" edge="1" parent="1">
          <mxGeometry width="50" height="50" relative="1" as="geometry">
            <mxPoint x="618.5" y="634.83" as="sourcePoint" />
            <mxPoint x="641.5" y="634.83" as="targetPoint" />
          </mxGeometry>
        </mxCell>
      </root>
    </mxGraphModel>
  </diagram>
</mxfile>
